<mxfile host="app.diagrams.net" modified="2021-03-24T11:01:47.640Z" agent="5.0 (Macintosh; Intel Mac OS X 11_2_3) AppleWebKit/537.36 (KHTML, like Gecko) Chrome/89.0.4389.90 Safari/537.36" etag="DE7P-xjFRFtvZ_hDdm8S" version="14.5.1" type="github">
  <diagram id="m8EfwMlD6pJyQ6ngMFNb" name="Page-1">
    <mxGraphModel dx="2752" dy="2892" grid="1" gridSize="10" guides="1" tooltips="1" connect="1" arrows="1" fold="1" page="1" pageScale="1" pageWidth="827" pageHeight="1169" math="0" shadow="0">
      <root>
        <mxCell id="0" />
        <mxCell id="1" parent="0" />
        <mxCell id="pNTca3sCik3gb16l0_aR-1" value="User Account" style="rounded=0;whiteSpace=wrap;html=1;direction=west;" vertex="1" parent="1">
          <mxGeometry x="430" y="270" width="120" height="60" as="geometry" />
        </mxCell>
        <mxCell id="pNTca3sCik3gb16l0_aR-2" value="Alarm" style="rounded=0;whiteSpace=wrap;html=1;" vertex="1" parent="1">
          <mxGeometry x="990" y="250" width="120" height="60" as="geometry" />
        </mxCell>
        <mxCell id="pNTca3sCik3gb16l0_aR-3" value="Team" style="rounded=0;whiteSpace=wrap;html=1;" vertex="1" parent="1">
          <mxGeometry x="970" y="667" width="120" height="60" as="geometry" />
        </mxCell>
        <mxCell id="pNTca3sCik3gb16l0_aR-4" value="Comment" style="rounded=0;whiteSpace=wrap;html=1;" vertex="1" parent="1">
          <mxGeometry x="440" y="680" width="120" height="60" as="geometry" />
        </mxCell>
        <mxCell id="pNTca3sCik3gb16l0_aR-5" value="&lt;u&gt;Id&lt;/u&gt;" style="ellipse;whiteSpace=wrap;html=1;" vertex="1" parent="1">
          <mxGeometry x="1220" y="160" width="100" height="70" as="geometry" />
        </mxCell>
        <mxCell id="pNTca3sCik3gb16l0_aR-6" value="Type" style="ellipse;whiteSpace=wrap;html=1;" vertex="1" parent="1">
          <mxGeometry x="1250" y="250" width="100" height="70" as="geometry" />
        </mxCell>
        <mxCell id="pNTca3sCik3gb16l0_aR-7" value="Date" style="ellipse;whiteSpace=wrap;html=1;" vertex="1" parent="1">
          <mxGeometry x="1260" y="335" width="100" height="70" as="geometry" />
        </mxCell>
        <mxCell id="pNTca3sCik3gb16l0_aR-8" value="Password" style="ellipse;whiteSpace=wrap;html=1;" vertex="1" parent="1">
          <mxGeometry x="270" y="335" width="100" height="70" as="geometry" />
        </mxCell>
        <mxCell id="pNTca3sCik3gb16l0_aR-9" value="NickName" style="ellipse;whiteSpace=wrap;html=1;" vertex="1" parent="1">
          <mxGeometry x="270" y="250" width="100" height="70" as="geometry" />
        </mxCell>
        <mxCell id="pNTca3sCik3gb16l0_aR-10" value="&lt;u&gt;Id&lt;/u&gt;" style="ellipse;whiteSpace=wrap;html=1;" vertex="1" parent="1">
          <mxGeometry x="270" y="170" width="100" height="70" as="geometry" />
        </mxCell>
        <mxCell id="pNTca3sCik3gb16l0_aR-11" value="Id" style="ellipse;whiteSpace=wrap;html=1;" vertex="1" parent="1">
          <mxGeometry x="340" y="800" width="100" height="70" as="geometry" />
        </mxCell>
        <mxCell id="pNTca3sCik3gb16l0_aR-12" value="Date" style="ellipse;whiteSpace=wrap;html=1;" vertex="1" parent="1">
          <mxGeometry x="460" y="810" width="100" height="70" as="geometry" />
        </mxCell>
        <mxCell id="pNTca3sCik3gb16l0_aR-13" value="Content" style="ellipse;whiteSpace=wrap;html=1;" vertex="1" parent="1">
          <mxGeometry x="580" y="790" width="100" height="70" as="geometry" />
        </mxCell>
        <mxCell id="pNTca3sCik3gb16l0_aR-14" value="Date" style="ellipse;whiteSpace=wrap;html=1;" vertex="1" parent="1">
          <mxGeometry x="1280" y="620" width="100" height="70" as="geometry" />
        </mxCell>
        <mxCell id="pNTca3sCik3gb16l0_aR-15" value="&lt;u&gt;Id&lt;/u&gt;" style="ellipse;whiteSpace=wrap;html=1;" vertex="1" parent="1">
          <mxGeometry x="1280" y="535" width="100" height="70" as="geometry" />
        </mxCell>
        <mxCell id="pNTca3sCik3gb16l0_aR-16" value="Category" style="ellipse;whiteSpace=wrap;html=1;" vertex="1" parent="1">
          <mxGeometry x="1240" y="710" width="100" height="70" as="geometry" />
        </mxCell>
        <mxCell id="pNTca3sCik3gb16l0_aR-17" value="Number of Member" style="ellipse;whiteSpace=wrap;html=1;" vertex="1" parent="1">
          <mxGeometry x="1220" y="790" width="100" height="70" as="geometry" />
        </mxCell>
        <mxCell id="pNTca3sCik3gb16l0_aR-18" value="Introduction" style="ellipse;whiteSpace=wrap;html=1;" vertex="1" parent="1">
          <mxGeometry x="1140" y="850" width="100" height="70" as="geometry" />
        </mxCell>
        <mxCell id="pNTca3sCik3gb16l0_aR-19" value="Limit" style="ellipse;whiteSpace=wrap;html=1;" vertex="1" parent="1">
          <mxGeometry x="1020" y="860" width="100" height="70" as="geometry" />
        </mxCell>
        <mxCell id="pNTca3sCik3gb16l0_aR-20" value="Status" style="ellipse;whiteSpace=wrap;html=1;" vertex="1" parent="1">
          <mxGeometry x="900" y="850" width="100" height="70" as="geometry" />
        </mxCell>
        <mxCell id="pNTca3sCik3gb16l0_aR-21" value="Title" style="ellipse;whiteSpace=wrap;html=1;" vertex="1" parent="1">
          <mxGeometry x="790" y="817" width="100" height="70" as="geometry" />
        </mxCell>
        <mxCell id="pNTca3sCik3gb16l0_aR-22" value="" style="endArrow=none;html=1;entryX=1;entryY=0.5;entryDx=0;entryDy=0;exitX=1;exitY=0.5;exitDx=0;exitDy=0;" edge="1" parent="1" source="pNTca3sCik3gb16l0_aR-1" target="pNTca3sCik3gb16l0_aR-10">
          <mxGeometry width="50" height="50" relative="1" as="geometry">
            <mxPoint x="600" y="280" as="sourcePoint" />
            <mxPoint x="800" y="490" as="targetPoint" />
          </mxGeometry>
        </mxCell>
        <mxCell id="pNTca3sCik3gb16l0_aR-23" value="" style="endArrow=none;html=1;entryX=1;entryY=0.5;entryDx=0;entryDy=0;" edge="1" parent="1" target="pNTca3sCik3gb16l0_aR-9">
          <mxGeometry width="50" height="50" relative="1" as="geometry">
            <mxPoint x="430" y="300" as="sourcePoint" />
            <mxPoint x="380" y="215" as="targetPoint" />
          </mxGeometry>
        </mxCell>
        <mxCell id="pNTca3sCik3gb16l0_aR-24" value="" style="endArrow=none;html=1;entryX=1;entryY=0.5;entryDx=0;entryDy=0;" edge="1" parent="1" target="pNTca3sCik3gb16l0_aR-8">
          <mxGeometry width="50" height="50" relative="1" as="geometry">
            <mxPoint x="430" y="300" as="sourcePoint" />
            <mxPoint x="380" y="295" as="targetPoint" />
          </mxGeometry>
        </mxCell>
        <mxCell id="pNTca3sCik3gb16l0_aR-25" value="" style="endArrow=none;html=1;entryX=0.5;entryY=1;entryDx=0;entryDy=0;exitX=1;exitY=0.5;exitDx=0;exitDy=0;" edge="1" parent="1" source="pNTca3sCik3gb16l0_aR-2" target="pNTca3sCik3gb16l0_aR-5">
          <mxGeometry width="50" height="50" relative="1" as="geometry">
            <mxPoint x="1100" y="360" as="sourcePoint" />
            <mxPoint x="700" y="405" as="targetPoint" />
          </mxGeometry>
        </mxCell>
        <mxCell id="pNTca3sCik3gb16l0_aR-26" value="" style="endArrow=none;html=1;entryX=0;entryY=0.5;entryDx=0;entryDy=0;exitX=1;exitY=0.5;exitDx=0;exitDy=0;" edge="1" parent="1" source="pNTca3sCik3gb16l0_aR-2" target="pNTca3sCik3gb16l0_aR-6">
          <mxGeometry width="50" height="50" relative="1" as="geometry">
            <mxPoint x="1040" y="330" as="sourcePoint" />
            <mxPoint x="940" y="250" as="targetPoint" />
          </mxGeometry>
        </mxCell>
        <mxCell id="pNTca3sCik3gb16l0_aR-27" value="" style="endArrow=none;html=1;entryX=0;entryY=0;entryDx=0;entryDy=0;exitX=1;exitY=0.5;exitDx=0;exitDy=0;" edge="1" parent="1" source="pNTca3sCik3gb16l0_aR-2" target="pNTca3sCik3gb16l0_aR-7">
          <mxGeometry width="50" height="50" relative="1" as="geometry">
            <mxPoint x="1060" y="350" as="sourcePoint" />
            <mxPoint x="950" y="260" as="targetPoint" />
          </mxGeometry>
        </mxCell>
        <mxCell id="pNTca3sCik3gb16l0_aR-28" value="" style="endArrow=none;html=1;entryX=0.5;entryY=1;entryDx=0;entryDy=0;exitX=1;exitY=0.5;exitDx=0;exitDy=0;" edge="1" parent="1" source="pNTca3sCik3gb16l0_aR-3" target="pNTca3sCik3gb16l0_aR-15">
          <mxGeometry width="50" height="50" relative="1" as="geometry">
            <mxPoint x="940" y="647" as="sourcePoint" />
            <mxPoint x="1060" y="557" as="targetPoint" />
          </mxGeometry>
        </mxCell>
        <mxCell id="pNTca3sCik3gb16l0_aR-29" value="" style="endArrow=none;html=1;exitX=1;exitY=0.5;exitDx=0;exitDy=0;entryX=0;entryY=0.5;entryDx=0;entryDy=0;" edge="1" parent="1" source="pNTca3sCik3gb16l0_aR-3" target="pNTca3sCik3gb16l0_aR-14">
          <mxGeometry width="50" height="50" relative="1" as="geometry">
            <mxPoint x="1050" y="677" as="sourcePoint" />
            <mxPoint x="1170" y="597" as="targetPoint" />
          </mxGeometry>
        </mxCell>
        <mxCell id="pNTca3sCik3gb16l0_aR-30" value="" style="endArrow=none;html=1;entryX=0;entryY=0.5;entryDx=0;entryDy=0;exitX=1;exitY=0.5;exitDx=0;exitDy=0;" edge="1" parent="1" source="pNTca3sCik3gb16l0_aR-3" target="pNTca3sCik3gb16l0_aR-16">
          <mxGeometry width="50" height="50" relative="1" as="geometry">
            <mxPoint x="1030" y="667" as="sourcePoint" />
            <mxPoint x="1190" y="597" as="targetPoint" />
          </mxGeometry>
        </mxCell>
        <mxCell id="pNTca3sCik3gb16l0_aR-31" value="" style="endArrow=none;html=1;entryX=0;entryY=0.5;entryDx=0;entryDy=0;exitX=0.5;exitY=1;exitDx=0;exitDy=0;" edge="1" parent="1" source="pNTca3sCik3gb16l0_aR-3" target="pNTca3sCik3gb16l0_aR-17">
          <mxGeometry width="50" height="50" relative="1" as="geometry">
            <mxPoint x="1050" y="677" as="sourcePoint" />
            <mxPoint x="1210.0000000000086" y="632" as="targetPoint" />
          </mxGeometry>
        </mxCell>
        <mxCell id="pNTca3sCik3gb16l0_aR-32" value="" style="endArrow=none;html=1;entryX=0.5;entryY=0;entryDx=0;entryDy=0;exitX=0.5;exitY=1;exitDx=0;exitDy=0;" edge="1" parent="1" source="pNTca3sCik3gb16l0_aR-3" target="pNTca3sCik3gb16l0_aR-18">
          <mxGeometry width="50" height="50" relative="1" as="geometry">
            <mxPoint x="1100" y="707" as="sourcePoint" />
            <mxPoint x="1230.0000000000086" y="707" as="targetPoint" />
          </mxGeometry>
        </mxCell>
        <mxCell id="pNTca3sCik3gb16l0_aR-33" value="" style="endArrow=none;html=1;entryX=0;entryY=0;entryDx=0;entryDy=0;" edge="1" parent="1" target="pNTca3sCik3gb16l0_aR-19">
          <mxGeometry width="50" height="50" relative="1" as="geometry">
            <mxPoint x="1030" y="730" as="sourcePoint" />
            <mxPoint x="1220" y="792" as="targetPoint" />
          </mxGeometry>
        </mxCell>
        <mxCell id="pNTca3sCik3gb16l0_aR-34" value="" style="endArrow=none;html=1;entryX=0.5;entryY=0;entryDx=0;entryDy=0;exitX=0.5;exitY=1;exitDx=0;exitDy=0;" edge="1" parent="1" source="pNTca3sCik3gb16l0_aR-3" target="pNTca3sCik3gb16l0_aR-20">
          <mxGeometry width="50" height="50" relative="1" as="geometry">
            <mxPoint x="1110" y="717" as="sourcePoint" />
            <mxPoint x="1230" y="802" as="targetPoint" />
          </mxGeometry>
        </mxCell>
        <mxCell id="pNTca3sCik3gb16l0_aR-35" value="" style="endArrow=none;html=1;entryX=0.5;entryY=0;entryDx=0;entryDy=0;exitX=0.5;exitY=1;exitDx=0;exitDy=0;" edge="1" parent="1" source="pNTca3sCik3gb16l0_aR-3" target="pNTca3sCik3gb16l0_aR-21">
          <mxGeometry width="50" height="50" relative="1" as="geometry">
            <mxPoint x="1090" y="707" as="sourcePoint" />
            <mxPoint x="1240" y="812" as="targetPoint" />
          </mxGeometry>
        </mxCell>
        <mxCell id="pNTca3sCik3gb16l0_aR-36" value="" style="endArrow=none;html=1;entryX=0.5;entryY=0;entryDx=0;entryDy=0;exitX=0.5;exitY=1;exitDx=0;exitDy=0;" edge="1" parent="1" source="pNTca3sCik3gb16l0_aR-4" target="pNTca3sCik3gb16l0_aR-11">
          <mxGeometry width="50" height="50" relative="1" as="geometry">
            <mxPoint x="470" y="730" as="sourcePoint" />
            <mxPoint x="410" y="800" as="targetPoint" />
          </mxGeometry>
        </mxCell>
        <mxCell id="pNTca3sCik3gb16l0_aR-37" value="" style="endArrow=none;html=1;entryX=0.5;entryY=0;entryDx=0;entryDy=0;exitX=0.5;exitY=1;exitDx=0;exitDy=0;" edge="1" parent="1" source="pNTca3sCik3gb16l0_aR-4" target="pNTca3sCik3gb16l0_aR-12">
          <mxGeometry width="50" height="50" relative="1" as="geometry">
            <mxPoint x="510" y="750" as="sourcePoint" />
            <mxPoint x="400" y="810" as="targetPoint" />
          </mxGeometry>
        </mxCell>
        <mxCell id="pNTca3sCik3gb16l0_aR-38" value="" style="endArrow=none;html=1;entryX=0.5;entryY=0;entryDx=0;entryDy=0;exitX=0.5;exitY=1;exitDx=0;exitDy=0;" edge="1" parent="1" source="pNTca3sCik3gb16l0_aR-4" target="pNTca3sCik3gb16l0_aR-13">
          <mxGeometry width="50" height="50" relative="1" as="geometry">
            <mxPoint x="510" y="750" as="sourcePoint" />
            <mxPoint x="520" y="820" as="targetPoint" />
          </mxGeometry>
        </mxCell>
        <mxCell id="pNTca3sCik3gb16l0_aR-39" value="Target" style="rhombus;whiteSpace=wrap;html=1;" vertex="1" parent="1">
          <mxGeometry x="680" y="210" width="110" height="80" as="geometry" />
        </mxCell>
        <mxCell id="pNTca3sCik3gb16l0_aR-40" value="Contain" style="rhombus;whiteSpace=wrap;html=1;" vertex="1" parent="1">
          <mxGeometry x="680" y="320" width="110" height="80" as="geometry" />
        </mxCell>
        <mxCell id="pNTca3sCik3gb16l0_aR-41" value="Write" style="rhombus;whiteSpace=wrap;html=1;" vertex="1" parent="1">
          <mxGeometry x="430" y="455" width="110" height="80" as="geometry" />
        </mxCell>
        <mxCell id="pNTca3sCik3gb16l0_aR-42" value="Target" style="rhombus;whiteSpace=wrap;html=1;" vertex="1" parent="1">
          <mxGeometry x="990" y="470" width="110" height="80" as="geometry" />
        </mxCell>
        <mxCell id="pNTca3sCik3gb16l0_aR-43" value="Owner" style="rhombus;whiteSpace=wrap;html=1;" vertex="1" parent="1">
          <mxGeometry x="680" y="435" width="110" height="80" as="geometry" />
        </mxCell>
        <mxCell id="pNTca3sCik3gb16l0_aR-44" value="Member" style="rhombus;whiteSpace=wrap;html=1;" vertex="1" parent="1">
          <mxGeometry x="680" y="570" width="110" height="80" as="geometry" />
        </mxCell>
        <mxCell id="pNTca3sCik3gb16l0_aR-45" value="Contain" style="rhombus;whiteSpace=wrap;html=1;" vertex="1" parent="1">
          <mxGeometry x="680" y="680" width="110" height="80" as="geometry" />
        </mxCell>
        <mxCell id="pNTca3sCik3gb16l0_aR-46" value="" style="endArrow=none;html=1;entryX=0;entryY=0.5;entryDx=0;entryDy=0;exitX=0;exitY=0.5;exitDx=0;exitDy=0;" edge="1" parent="1" source="pNTca3sCik3gb16l0_aR-1" target="pNTca3sCik3gb16l0_aR-39">
          <mxGeometry width="50" height="50" relative="1" as="geometry">
            <mxPoint x="760" y="750" as="sourcePoint" />
            <mxPoint x="810" y="700" as="targetPoint" />
          </mxGeometry>
        </mxCell>
        <mxCell id="pNTca3sCik3gb16l0_aR-47" value="" style="endArrow=none;html=1;entryX=0;entryY=0.5;entryDx=0;entryDy=0;exitX=1;exitY=0.5;exitDx=0;exitDy=0;" edge="1" parent="1" source="pNTca3sCik3gb16l0_aR-39" target="pNTca3sCik3gb16l0_aR-2">
          <mxGeometry width="50" height="50" relative="1" as="geometry">
            <mxPoint x="470" y="495" as="sourcePoint" />
            <mxPoint x="457.5" y="350" as="targetPoint" />
          </mxGeometry>
        </mxCell>
        <mxCell id="pNTca3sCik3gb16l0_aR-48" value="" style="endArrow=none;html=1;entryX=0;entryY=0.5;entryDx=0;entryDy=0;exitX=0;exitY=0.5;exitDx=0;exitDy=0;" edge="1" parent="1" source="pNTca3sCik3gb16l0_aR-67" target="pNTca3sCik3gb16l0_aR-40">
          <mxGeometry width="50" height="50" relative="1" as="geometry">
            <mxPoint x="560" y="300" as="sourcePoint" />
            <mxPoint x="690" y="260" as="targetPoint" />
          </mxGeometry>
        </mxCell>
        <mxCell id="pNTca3sCik3gb16l0_aR-49" value="" style="endArrow=none;html=1;entryX=0;entryY=0.5;entryDx=0;entryDy=0;exitX=1;exitY=0.5;exitDx=0;exitDy=0;" edge="1" parent="1" source="pNTca3sCik3gb16l0_aR-40" target="pNTca3sCik3gb16l0_aR-2">
          <mxGeometry width="50" height="50" relative="1" as="geometry">
            <mxPoint x="805" y="370" as="sourcePoint" />
            <mxPoint x="935" y="320" as="targetPoint" />
          </mxGeometry>
        </mxCell>
        <mxCell id="pNTca3sCik3gb16l0_aR-50" value="" style="endArrow=none;html=1;exitX=1;exitY=0.5;exitDx=0;exitDy=0;entryX=0;entryY=0.5;entryDx=0;entryDy=0;" edge="1" parent="1" source="pNTca3sCik3gb16l0_aR-45" target="pNTca3sCik3gb16l0_aR-3">
          <mxGeometry width="50" height="50" relative="1" as="geometry">
            <mxPoint x="790" y="750" as="sourcePoint" />
            <mxPoint x="840" y="700" as="targetPoint" />
          </mxGeometry>
        </mxCell>
        <mxCell id="pNTca3sCik3gb16l0_aR-51" value="" style="endArrow=none;html=1;exitX=1;exitY=0.5;exitDx=0;exitDy=0;entryX=0;entryY=0.5;entryDx=0;entryDy=0;" edge="1" parent="1" source="pNTca3sCik3gb16l0_aR-4" target="pNTca3sCik3gb16l0_aR-45">
          <mxGeometry width="50" height="50" relative="1" as="geometry">
            <mxPoint x="800" y="730" as="sourcePoint" />
            <mxPoint x="980" y="707.0000000000002" as="targetPoint" />
          </mxGeometry>
        </mxCell>
        <mxCell id="pNTca3sCik3gb16l0_aR-52" value="" style="endArrow=none;html=1;exitX=0.5;exitY=0;exitDx=0;exitDy=0;entryX=0.5;entryY=1;entryDx=0;entryDy=0;" edge="1" parent="1" source="pNTca3sCik3gb16l0_aR-42" target="pNTca3sCik3gb16l0_aR-2">
          <mxGeometry width="50" height="50" relative="1" as="geometry">
            <mxPoint x="955" y="428" as="sourcePoint" />
            <mxPoint x="1135" y="405.0000000000002" as="targetPoint" />
          </mxGeometry>
        </mxCell>
        <mxCell id="pNTca3sCik3gb16l0_aR-53" value="" style="endArrow=none;html=1;exitX=0.5;exitY=0;exitDx=0;exitDy=0;entryX=0.5;entryY=1;entryDx=0;entryDy=0;" edge="1" parent="1" source="pNTca3sCik3gb16l0_aR-3" target="pNTca3sCik3gb16l0_aR-42">
          <mxGeometry width="50" height="50" relative="1" as="geometry">
            <mxPoint x="1055" y="480" as="sourcePoint" />
            <mxPoint x="1050" y="540" as="targetPoint" />
          </mxGeometry>
        </mxCell>
        <mxCell id="pNTca3sCik3gb16l0_aR-54" value="" style="endArrow=none;html=1;exitX=0.5;exitY=0;exitDx=0;exitDy=0;entryX=0.5;entryY=1;entryDx=0;entryDy=0;" edge="1" parent="1" source="pNTca3sCik3gb16l0_aR-4" target="pNTca3sCik3gb16l0_aR-41">
          <mxGeometry width="50" height="50" relative="1" as="geometry">
            <mxPoint x="495" y="465" as="sourcePoint" />
            <mxPoint x="500" y="340" as="targetPoint" />
          </mxGeometry>
        </mxCell>
        <mxCell id="pNTca3sCik3gb16l0_aR-55" value="" style="endArrow=none;html=1;exitX=0;exitY=0;exitDx=0;exitDy=0;entryX=1;entryY=0.5;entryDx=0;entryDy=0;" edge="1" parent="1" source="pNTca3sCik3gb16l0_aR-3" target="pNTca3sCik3gb16l0_aR-43">
          <mxGeometry width="50" height="50" relative="1" as="geometry">
            <mxPoint x="530" y="340" as="sourcePoint" />
            <mxPoint x="690" y="500" as="targetPoint" />
          </mxGeometry>
        </mxCell>
        <mxCell id="pNTca3sCik3gb16l0_aR-56" value="" style="endArrow=none;html=1;exitX=0;exitY=0;exitDx=0;exitDy=0;entryX=0;entryY=0.5;entryDx=0;entryDy=0;" edge="1" parent="1" source="pNTca3sCik3gb16l0_aR-1" target="pNTca3sCik3gb16l0_aR-44">
          <mxGeometry width="50" height="50" relative="1" as="geometry">
            <mxPoint x="530" y="340" as="sourcePoint" />
            <mxPoint x="690" y="500" as="targetPoint" />
          </mxGeometry>
        </mxCell>
        <mxCell id="pNTca3sCik3gb16l0_aR-57" value="" style="endArrow=none;html=1;exitX=0.5;exitY=0;exitDx=0;exitDy=0;entryX=0.5;entryY=0;entryDx=0;entryDy=0;" edge="1" parent="1" target="pNTca3sCik3gb16l0_aR-4">
          <mxGeometry width="50" height="50" relative="1" as="geometry">
            <mxPoint x="275" y="680" as="sourcePoint" />
            <mxPoint x="840" y="700" as="targetPoint" />
          </mxGeometry>
        </mxCell>
        <mxCell id="pNTca3sCik3gb16l0_aR-58" value="" style="endArrow=none;html=1;exitX=0.5;exitY=1;exitDx=0;exitDy=0;entryX=0.25;entryY=1;entryDx=0;entryDy=0;" edge="1" parent="1" target="pNTca3sCik3gb16l0_aR-4">
          <mxGeometry width="50" height="50" relative="1" as="geometry">
            <mxPoint x="275" y="740" as="sourcePoint" />
            <mxPoint x="510" y="690" as="targetPoint" />
          </mxGeometry>
        </mxCell>
        <mxCell id="pNTca3sCik3gb16l0_aR-59" value="&lt;font style=&quot;font-size: 14px&quot;&gt;1&lt;/font&gt;" style="text;html=1;strokeColor=none;fillColor=none;align=center;verticalAlign=middle;whiteSpace=wrap;rounded=0;" vertex="1" parent="1">
          <mxGeometry x="640" y="390" width="60" height="40" as="geometry" />
        </mxCell>
        <mxCell id="pNTca3sCik3gb16l0_aR-60" value="&lt;font style=&quot;font-size: 14px&quot;&gt;1&lt;/font&gt;" style="text;html=1;strokeColor=none;fillColor=none;align=center;verticalAlign=middle;whiteSpace=wrap;rounded=0;" vertex="1" parent="1">
          <mxGeometry x="830" y="677" width="60" height="40" as="geometry" />
        </mxCell>
        <mxCell id="pNTca3sCik3gb16l0_aR-61" value="&lt;span style=&quot;font-size: 14px&quot;&gt;N&lt;/span&gt;" style="text;html=1;strokeColor=none;fillColor=none;align=center;verticalAlign=middle;whiteSpace=wrap;rounded=0;" vertex="1" parent="1">
          <mxGeometry x="590" y="680" width="60" height="40" as="geometry" />
        </mxCell>
        <mxCell id="pNTca3sCik3gb16l0_aR-62" value="&lt;font style=&quot;font-size: 14px&quot;&gt;1&lt;/font&gt;" style="text;html=1;strokeColor=none;fillColor=none;align=center;verticalAlign=middle;whiteSpace=wrap;rounded=0;" vertex="1" parent="1">
          <mxGeometry x="340" y="677" width="60" height="40" as="geometry" />
        </mxCell>
        <mxCell id="pNTca3sCik3gb16l0_aR-63" value="&lt;span style=&quot;font-size: 14px&quot;&gt;N&lt;/span&gt;" style="text;html=1;strokeColor=none;fillColor=none;align=center;verticalAlign=middle;whiteSpace=wrap;rounded=0;" vertex="1" parent="1">
          <mxGeometry x="340" y="710" width="60" height="40" as="geometry" />
        </mxCell>
        <mxCell id="pNTca3sCik3gb16l0_aR-64" value="&lt;span style=&quot;font-size: 14px&quot;&gt;1&lt;/span&gt;" style="text;html=1;strokeColor=none;fillColor=none;align=center;verticalAlign=middle;whiteSpace=wrap;rounded=0;" vertex="1" parent="1">
          <mxGeometry x="480" y="390" width="60" height="40" as="geometry" />
        </mxCell>
        <mxCell id="pNTca3sCik3gb16l0_aR-65" value="&lt;span style=&quot;font-size: 14px&quot;&gt;N&lt;/span&gt;" style="text;html=1;strokeColor=none;fillColor=none;align=center;verticalAlign=middle;whiteSpace=wrap;rounded=0;" vertex="1" parent="1">
          <mxGeometry x="480" y="570" width="60" height="40" as="geometry" />
        </mxCell>
        <mxCell id="pNTca3sCik3gb16l0_aR-66" value="&lt;font style=&quot;font-size: 14px&quot;&gt;N&lt;/font&gt;" style="text;html=1;strokeColor=none;fillColor=none;align=center;verticalAlign=middle;whiteSpace=wrap;rounded=0;" vertex="1" parent="1">
          <mxGeometry x="830" y="295" width="60" height="40" as="geometry" />
        </mxCell>
        <mxCell id="pNTca3sCik3gb16l0_aR-67" value="&lt;font style=&quot;font-size: 14px&quot;&gt;1&lt;/font&gt;" style="text;html=1;strokeColor=none;fillColor=none;align=center;verticalAlign=middle;whiteSpace=wrap;rounded=0;" vertex="1" parent="1">
          <mxGeometry x="610" y="310" width="60" height="40" as="geometry" />
        </mxCell>
        <mxCell id="pNTca3sCik3gb16l0_aR-68" value="" style="endArrow=none;html=1;entryX=0;entryY=0.5;entryDx=0;entryDy=0;exitX=0;exitY=0.5;exitDx=0;exitDy=0;" edge="1" parent="1" source="pNTca3sCik3gb16l0_aR-1" target="pNTca3sCik3gb16l0_aR-67">
          <mxGeometry width="50" height="50" relative="1" as="geometry">
            <mxPoint x="550" y="300" as="sourcePoint" />
            <mxPoint x="680" y="360" as="targetPoint" />
          </mxGeometry>
        </mxCell>
        <mxCell id="pNTca3sCik3gb16l0_aR-69" value="&lt;font style=&quot;font-size: 14px&quot;&gt;M&lt;/font&gt;" style="text;html=1;strokeColor=none;fillColor=none;align=center;verticalAlign=middle;whiteSpace=wrap;rounded=0;" vertex="1" parent="1">
          <mxGeometry x="820" y="590" width="60" height="40" as="geometry" />
        </mxCell>
        <mxCell id="pNTca3sCik3gb16l0_aR-70" value="" style="endArrow=none;html=1;exitX=0.5;exitY=0;exitDx=0;exitDy=0;entryX=0.5;entryY=0;entryDx=0;entryDy=0;" edge="1" parent="1" source="pNTca3sCik3gb16l0_aR-41" target="pNTca3sCik3gb16l0_aR-1">
          <mxGeometry width="50" height="50" relative="1" as="geometry">
            <mxPoint x="790" y="680" as="sourcePoint" />
            <mxPoint x="840" y="630" as="targetPoint" />
          </mxGeometry>
        </mxCell>
        <mxCell id="pNTca3sCik3gb16l0_aR-71" value="" style="endArrow=none;html=1;entryX=0.4;entryY=0;entryDx=0;entryDy=0;entryPerimeter=0;exitX=0.609;exitY=0.146;exitDx=0;exitDy=0;exitPerimeter=0;" edge="1" parent="1" source="pNTca3sCik3gb16l0_aR-41" target="pNTca3sCik3gb16l0_aR-1">
          <mxGeometry width="50" height="50" relative="1" as="geometry">
            <mxPoint x="500" y="455" as="sourcePoint" />
            <mxPoint x="540" y="410" as="targetPoint" />
          </mxGeometry>
        </mxCell>
        <mxCell id="pNTca3sCik3gb16l0_aR-72" value="" style="endArrow=none;html=1;exitX=0;exitY=0.25;exitDx=0;exitDy=0;entryX=0;entryY=0.5;entryDx=0;entryDy=0;" edge="1" parent="1" source="pNTca3sCik3gb16l0_aR-1" target="pNTca3sCik3gb16l0_aR-43">
          <mxGeometry width="50" height="50" relative="1" as="geometry">
            <mxPoint x="560" y="340" as="sourcePoint" />
            <mxPoint x="690" y="620" as="targetPoint" />
          </mxGeometry>
        </mxCell>
        <mxCell id="pNTca3sCik3gb16l0_aR-73" value="" style="endArrow=none;html=1;entryX=0.124;entryY=0.417;entryDx=0;entryDy=0;entryPerimeter=0;" edge="1" parent="1" target="pNTca3sCik3gb16l0_aR-43">
          <mxGeometry width="50" height="50" relative="1" as="geometry">
            <mxPoint x="550" y="310" as="sourcePoint" />
            <mxPoint x="720" y="460" as="targetPoint" />
          </mxGeometry>
        </mxCell>
        <mxCell id="pNTca3sCik3gb16l0_aR-74" value="" style="endArrow=none;html=1;entryX=1;entryY=0.5;entryDx=0;entryDy=0;" edge="1" parent="1" target="pNTca3sCik3gb16l0_aR-44">
          <mxGeometry width="50" height="50" relative="1" as="geometry">
            <mxPoint x="970" y="670" as="sourcePoint" />
            <mxPoint x="800" y="500" as="targetPoint" />
          </mxGeometry>
        </mxCell>
        <mxCell id="pNTca3sCik3gb16l0_aR-75" value="" style="endArrow=none;html=1;exitX=0;exitY=0.25;exitDx=0;exitDy=0;entryX=0.867;entryY=0.625;entryDx=0;entryDy=0;entryPerimeter=0;" edge="1" parent="1" source="pNTca3sCik3gb16l0_aR-3" target="pNTca3sCik3gb16l0_aR-44">
          <mxGeometry width="50" height="50" relative="1" as="geometry">
            <mxPoint x="990" y="687.0000000000002" as="sourcePoint" />
            <mxPoint x="800" y="620" as="targetPoint" />
          </mxGeometry>
        </mxCell>
        <mxCell id="pNTca3sCik3gb16l0_aR-76" value="&lt;font style=&quot;font-size: 14px&quot;&gt;N&lt;/font&gt;" style="text;html=1;strokeColor=none;fillColor=none;align=center;verticalAlign=middle;whiteSpace=wrap;rounded=0;" vertex="1" parent="1">
          <mxGeometry x="870" y="530" width="60" height="40" as="geometry" />
        </mxCell>
        <mxCell id="pNTca3sCik3gb16l0_aR-77" value="&lt;span style=&quot;font-size: 14px&quot;&gt;N&lt;/span&gt;" style="text;html=1;strokeColor=none;fillColor=none;align=center;verticalAlign=middle;whiteSpace=wrap;rounded=0;" vertex="1" parent="1">
          <mxGeometry x="600" y="455" width="60" height="40" as="geometry" />
        </mxCell>
        <mxCell id="pNTca3sCik3gb16l0_aR-155" value="Contain" style="rhombus;whiteSpace=wrap;html=1;" vertex="1" parent="1">
          <mxGeometry x="220" y="680" width="110" height="60" as="geometry" />
        </mxCell>
      </root>
    </mxGraphModel>
  </diagram>
</mxfile>
